<svg xmlns="http://www.w3.org/2000/svg">
  <symbol id="overview" viewBox="0 0 24 24" fill="none" stroke="currentColor" stroke-width="1.7" stroke-linecap="round" stroke-linejoin="round"><rect x="3" y="4" width="7" height="16" rx="1"/><rect x="14" y="4" width="7" height="16" rx="1"/><path d="M6.5 8h.01M6.5 12h.01M6.5 16h.01M17.5 8h.01M17.5 12h.01M17.5 16h.01"/></symbol>
  <symbol id="user" viewBox="0 0 24 24" fill="none" stroke="currentColor" stroke-width="1.7" stroke-linecap="round" stroke-linejoin="round"><circle cx="12" cy="8" r="4"/><path d="M4.5 21a7.5 7.5 0 0 1 15 0"/></symbol>
  <symbol id="users" viewBox="0 0 24 24" fill="none" stroke="currentColor" stroke-width="1.7" stroke-linecap="round" stroke-linejoin="round"><circle cx="9" cy="8" r="3"/><circle cx="17" cy="9" r="2.5"/><path d="M3 20a6 6 0 0 1 12 0M14 15.5a5 5 0 0 1 7 4.5"/></symbol>
  <symbol id="send" viewBox="0 0 24 24" fill="none" stroke="currentColor" stroke-width="1.7" stroke-linecap="round" stroke-linejoin="round"><path d="m22 2-7 20-4-9-9-4 20-7Z"/><path d="M22 2 11 13"/></symbol>
  <symbol id="usage" viewBox="0 0 24 24" fill="none" stroke="currentColor" stroke-width="1.7" stroke-linecap="round"><path d="M4 20V10M9 20V4M14 20v-7M19 20V7M2 20h20"/></symbol>
  <symbol id="sliders" viewBox="0 0 24 24" fill="none" stroke="currentColor" stroke-width="1.7" stroke-linecap="round"><path d="M4 6h16M4 12h16M4 18h16"/><circle cx="9" cy="6" r="2" fill="#fff"/><circle cx="15" cy="12" r="2" fill="#fff"/><circle cx="8" cy="18" r="2" fill="#fff"/></symbol>
  <symbol id="diagnostics" viewBox="0 0 24 24" fill="none" stroke="currentColor" stroke-width="1.7" stroke-linecap="round" stroke-linejoin="round"><rect x="3" y="4" width="18" height="14" rx="2"/><path d="m6 12 3-3 3 6 3-5 3 2M9 21h6M12 18v3"/></symbol>
  <symbol id="support" viewBox="0 0 24 24" fill="none" stroke="currentColor" stroke-width="1.7"><circle cx="12" cy="12" r="9"/><circle cx="12" cy="12" r="4"/><path d="m5.6 5.6 3.6 3.6m5.6 5.6 3.6 3.6m0-12.8-3.6 3.6m-5.6 5.6-3.6 3.6"/></symbol>
  <symbol id="settings" viewBox="0 0 24 24" fill="none" stroke="currentColor" stroke-width="1.7" stroke-linecap="round" stroke-linejoin="round"><circle cx="12" cy="12" r="3"/><path d="M19.4 15a1.7 1.7 0 0 0 .3 1.9l.1.1-2.8 2.8-.1-.1a1.7 1.7 0 0 0-1.9-.3 1.7 1.7 0 0 0-1 1.6v.2h-4V21a1.7 1.7 0 0 0-1-1.6 1.7 1.7 0 0 0-1.9.3l-.1.1L4.2 17l.1-.1a1.7 1.7 0 0 0 .3-1.9A1.7 1.7 0 0 0 3 14H2.8v-4H3a1.7 1.7 0 0 0 1.6-1 1.7 1.7 0 0 0-.3-1.9L4.2 7 7 4.2l.1.1A1.7 1.7 0 0 0 9 4.6 1.7 1.7 0 0 0 10 3V2.8h4V3a1.7 1.7 0 0 0 1 1.6 1.7 1.7 0 0 0 1.9-.3l.1-.1L19.8 7l-.1.1a1.7 1.7 0 0 0-.3 1.9 1.7 1.7 0 0 0 1.6 1h.2v4H21a1.7 1.7 0 0 0-1.6 1Z"/></symbol>
  <symbol id="external" viewBox="0 0 24 24" fill="none" stroke="currentColor" stroke-width="1.7" stroke-linecap="round" stroke-linejoin="round"><path d="M14 4h6v6M20 4l-9 9"/><path d="M19 13v6a1 1 0 0 1-1 1H5a1 1 0 0 1-1-1V6a1 1 0 0 1 1-1h6"/></symbol>
  <symbol id="inbox" viewBox="0 0 24 24" fill="none" stroke="currentColor" stroke-width="1.7" stroke-linecap="round" stroke-linejoin="round"><path d="M4 4h16l2 10v6H2v-6L4 4Z"/><path d="M2 14h5l2 3h6l2-3h5"/></symbol>
  <symbol id="check" viewBox="0 0 24 24" fill="none" stroke="currentColor" stroke-width="2" stroke-linecap="round" stroke-linejoin="round"><path d="m5 12 4 4L19 6"/></symbol>
  <symbol id="chevron" viewBox="0 0 24 24" fill="none" stroke="currentColor" stroke-width="1.7" stroke-linecap="round" stroke-linejoin="round"><path d="m9 5 7 7-7 7"/></symbol>
  <symbol id="globe" viewBox="0 0 24 24" fill="none" stroke="currentColor" stroke-width="1.7"><circle cx="12" cy="12" r="9"/><path d="M3 12h18M12 3c3 3.5 3 14.5 0 18M12 3c-3 3.5-3 14.5 0 18"/></symbol>
  <symbol id="reply" viewBox="0 0 24 24" fill="none" stroke="currentColor" stroke-width="1.7" stroke-linecap="round" stroke-linejoin="round"><path d="m9 17-6-5 6-5"/><path d="M4 12h9a7 7 0 0 1 7 7"/></symbol>
  <symbol id="info" viewBox="0 0 24 24" fill="none" stroke="currentColor" stroke-width="1.7" stroke-linecap="round"><circle cx="12" cy="12" r="9"/><path d="M12 11v6M12 7h.01"/></symbol>
  <symbol id="mail" viewBox="0 0 24 24" fill="none" stroke="currentColor" stroke-width="1.7" stroke-linecap="round" stroke-linejoin="round"><rect x="3" y="5" width="18" height="14" rx="2"/><path d="m4 7 8 6 8-6"/></symbol>
  <symbol id="shield" viewBox="0 0 24 24" fill="none" stroke="currentColor" stroke-width="1.7" stroke-linejoin="round"><path d="M12 2 4 5v6c0 5 3.2 9.2 8 11 4.8-1.8 8-6 8-11V5l-8-3Z"/></symbol>
  <symbol id="lock" viewBox="0 0 24 24" fill="none" stroke="currentColor" stroke-width="1.7"><rect x="5" y="10" width="14" height="11" rx="2"/><path d="M8 10V7a4 4 0 0 1 8 0v3"/></symbol>
  <symbol id="refresh" viewBox="0 0 24 24" fill="none" stroke="currentColor" stroke-width="1.7" stroke-linecap="round" stroke-linejoin="round"><path d="M20 6v5h-5M4 18v-5h5"/><path d="M18.4 9A7 7 0 0 0 6 6.6L4 9m2 6a7 7 0 0 0 12 2.4L20 15"/></symbol>
  <symbol id="clock" viewBox="0 0 24 24" fill="none" stroke="currentColor" stroke-width="1.7" stroke-linecap="round"><circle cx="12" cy="12" r="9"/><path d="M12 7v5l3 2"/></symbol>
  <symbol id="trash" viewBox="0 0 24 24" fill="none" stroke="currentColor" stroke-width="1.7" stroke-linecap="round"><path d="M4 7h16M9 7V4h6v3M7 7l1 14h8l1-14M10 11v6M14 11v6"/></symbol>
  <symbol id="copy" viewBox="0 0 24 24" fill="none" stroke="currentColor" stroke-width="1.7"><rect x="8" y="8" width="12" height="12" rx="2"/><path d="M16 8V5a1 1 0 0 0-1-1H5a1 1 0 0 0-1 1v10a1 1 0 0 0 1 1h3"/></symbol>
  <symbol id="document" viewBox="0 0 24 24" fill="none" stroke="currentColor" stroke-width="1.7" stroke-linecap="round" stroke-linejoin="round"><path d="M6 2h8l4 4v16H6V2Z"/><path d="M14 2v5h4M9 12h6M9 16h6"/></symbol>
  <symbol id="gmail" viewBox="0 0 32 24"><path fill="#4285f4" d="M2 5.2v16.3c0 .8.6 1.5 1.5 1.5H7V10.2L2 6.4Z"/><path fill="#34a853" d="M25 10.2V23h3.5c.8 0 1.5-.7 1.5-1.5V6.4l-5 3.8Z"/><path fill="#fbbc04" d="M25 5.2V10L16 17 7 10V5.2l9 6.8 9-6.8Z"/><path fill="#ea4335" d="M3.8 3.4 16 12.7 28.2 3.4A1.5 1.5 0 0 1 30 4.6v1.8l-5 3.8-9 6.8-9-6.8-5-3.8V4.6a1.5 1.5 0 0 1 1.8-1.2Z"/></symbol>
  <symbol id="aws" viewBox="0 0 76 42"><text x="7" y="25" fill="#162d4d" font-size="25" font-family="Arial, sans-serif">aws</text><path d="M10 31c15 8 34 6 48-1" fill="none" stroke="#ff9900" stroke-width="3" stroke-linecap="round"/><path d="m53 28 6 2-4 5" fill="none" stroke="#ff9900" stroke-width="2" stroke-linecap="round" stroke-linejoin="round"/></symbol>
  <symbol id="resend" viewBox="0 0 32 32"><rect width="32" height="32" rx="4" fill="#111827"/><path fill="#fff" d="M8 7h8.3c5 0 8 2.5 8 6.6 0 3-1.6 5.1-4.4 6.1L25 25h-5.2l-4.3-4.6h-3.2V25H8V7Zm4.3 3.7v6h3.6c2.5 0 3.9-1 3.9-3s-1.4-3-3.9-3h-3.6Z"/></symbol>
  <symbol id="cloudflare" viewBox="0 0 64 38"><path fill="#f48120" d="M18 29h37a7 7 0 0 0-1-13.9A12 12 0 0 0 31 12a9 9 0 0 0-14 7.5A5 5 0 0 0 18 29Z"/><path fill="#faae40" d="M4 29h43a6 6 0 0 0-6-6H28a8 8 0 0 0-15 1H9a5 5 0 0 0-5 5Z"/></symbol>
</svg>
